<?xml version="1.0" encoding="UTF-8" standalone="no"?>
<!DOCTYPE svg PUBLIC "-//W3C//DTD SVG 1.1//EN"
 "http://www.w3.org/Graphics/SVG/1.1/DTD/svg11.dtd">
<!-- Generated by graphviz version 5.0.0 (20220707.1540)
 -->
<!-- Title: dependencies Pages: 1 -->
<svg width="852pt" height="174pt"
 viewBox="0.00 0.00 852.00 173.80" xmlns="http://www.w3.org/2000/svg" xmlns:xlink="http://www.w3.org/1999/xlink">
<g id="graph0" class="graph" transform="scale(1 1) rotate(0) translate(4 169.8)">
<title>dependencies</title>
<polygon fill="white" stroke="transparent" points="-4,4 -4,-169.8 848,-169.8 848,4 -4,4"/>
<text text-anchor="middle" x="422" y="-8.2" font-family="sans-serif" font-size="14.00">dependencies</text>
<g id="clust1" class="cluster">
<title>cluster_UserModule</title>
<polygon fill="none" stroke="black" stroke-dasharray="1,5" points="8,-32.8 8,-157.8 836,-157.8 836,-32.8 8,-32.8"/>
</g>
<g id="clust2" class="cluster">
<title>cluster_UserModule_declarations</title>
<polygon fill="none" stroke="black" points="172,-40.8 172,-92.8 828,-92.8 828,-40.8 172,-40.8"/>
</g>
<g id="clust7" class="cluster">
<title>cluster_UserModule_imports</title>
<polygon fill="none" stroke="black" points="16,-40.8 16,-92.8 164,-92.8 164,-40.8 16,-40.8"/>
</g>
<!-- UsersAddComponent -->
<g id="node1" class="node">
<title>UsersAddComponent</title>
<polygon fill="#ffffb3" stroke="black" points="819.82,-84.8 682.18,-84.8 682.18,-48.8 819.82,-48.8 819.82,-84.8"/>
<text text-anchor="middle" x="751" y="-62.6" font-family="Times,serif" font-size="14.00">UsersAddComponent</text>
</g>
<!-- UserModule -->
<g id="node5" class="node">
<title>UserModule</title>
<polygon fill="#8dd3c7" stroke="black" points="466.99,-149.8 463.99,-153.8 442.99,-153.8 439.99,-149.8 381.01,-149.8 381.01,-113.8 466.99,-113.8 466.99,-149.8"/>
<text text-anchor="middle" x="424" y="-127.6" font-family="Times,serif" font-size="14.00">UserModule</text>
</g>
<!-- UsersAddComponent&#45;&gt;UserModule -->
<g id="edge1" class="edge">
<title>UsersAddComponent&#45;&gt;UserModule</title>
<path fill="none" stroke="black" d="M751,-85.08C751,-106.12 751,-137.8 751,-137.8 751,-137.8 477.09,-137.8 477.09,-137.8"/>
<polygon fill="black" stroke="black" points="477.09,-134.3 467.09,-137.8 477.09,-141.3 477.09,-134.3"/>
</g>
<!-- UsersDeleteComponent -->
<g id="node2" class="node">
<title>UsersDeleteComponent</title>
<polygon fill="#ffffb3" stroke="black" points="663.75,-84.8 514.25,-84.8 514.25,-48.8 663.75,-48.8 663.75,-84.8"/>
<text text-anchor="middle" x="589" y="-62.6" font-family="Times,serif" font-size="14.00">UsersDeleteComponent</text>
</g>
<!-- UsersDeleteComponent&#45;&gt;UserModule -->
<g id="edge2" class="edge">
<title>UsersDeleteComponent&#45;&gt;UserModule</title>
<path fill="none" stroke="black" d="M589,-84.82C589,-102.17 589,-125.8 589,-125.8 589,-125.8 477.35,-125.8 477.35,-125.8"/>
<polygon fill="black" stroke="black" points="477.35,-122.3 467.35,-125.8 477.35,-129.3 477.35,-122.3"/>
</g>
<!-- UsersIndexComponent -->
<g id="node3" class="node">
<title>UsersIndexComponent</title>
<polygon fill="#ffffb3" stroke="black" points="496.59,-84.8 351.41,-84.8 351.41,-48.8 496.59,-48.8 496.59,-84.8"/>
<text text-anchor="middle" x="424" y="-62.6" font-family="Times,serif" font-size="14.00">UsersIndexComponent</text>
</g>
<!-- UsersIndexComponent&#45;&gt;UserModule -->
<g id="edge3" class="edge">
<title>UsersIndexComponent&#45;&gt;UserModule</title>
<path fill="none" stroke="black" d="M424,-84.91C424,-84.91 424,-103.79 424,-103.79"/>
<polygon fill="black" stroke="black" points="420.5,-103.79 424,-113.79 427.5,-103.79 420.5,-103.79"/>
</g>
<!-- UsersUpdateComponent -->
<g id="node4" class="node">
<title>UsersUpdateComponent</title>
<polygon fill="#ffffb3" stroke="black" points="333.64,-84.8 180.36,-84.8 180.36,-48.8 333.64,-48.8 333.64,-84.8"/>
<text text-anchor="middle" x="257" y="-62.6" font-family="Times,serif" font-size="14.00">UsersUpdateComponent</text>
</g>
<!-- UsersUpdateComponent&#45;&gt;UserModule -->
<g id="edge4" class="edge">
<title>UsersUpdateComponent&#45;&gt;UserModule</title>
<path fill="none" stroke="black" d="M257,-84.82C257,-102.17 257,-125.8 257,-125.8 257,-125.8 370.99,-125.8 370.99,-125.8"/>
<polygon fill="black" stroke="black" points="370.99,-129.3 380.99,-125.8 370.99,-122.3 370.99,-129.3"/>
</g>
<!-- UserRoutingModule -->
<g id="node6" class="node">
<title>UserRoutingModule</title>
<polygon fill="#8dd3c7" stroke="black" points="155.6,-84.8 152.6,-88.8 131.6,-88.8 128.6,-84.8 24.4,-84.8 24.4,-48.8 155.6,-48.8 155.6,-84.8"/>
<text text-anchor="middle" x="90" y="-62.6" font-family="Times,serif" font-size="14.00">UserRoutingModule</text>
</g>
<!-- UserRoutingModule&#45;&gt;UserModule -->
<g id="edge5" class="edge">
<title>UserRoutingModule&#45;&gt;UserModule</title>
<path fill="none" stroke="black" d="M90,-85.08C90,-106.12 90,-137.8 90,-137.8 90,-137.8 370.68,-137.8 370.68,-137.8"/>
<polygon fill="black" stroke="black" points="370.68,-141.3 380.68,-137.8 370.68,-134.3 370.68,-141.3"/>
</g>
</g>
</svg>
