<?xml version="1.0" encoding="UTF-8" standalone="no"?>
<!DOCTYPE svg PUBLIC "-//W3C//DTD SVG 1.1//EN"
 "http://www.w3.org/Graphics/SVG/1.1/DTD/svg11.dtd">
<!-- Generated by graphviz version 5.0.0 (20220707.1540)
 -->
<!-- Title: dependencies Pages: 1 -->
<svg width="652pt" height="174pt"
 viewBox="0.00 0.00 652.00 173.80" xmlns="http://www.w3.org/2000/svg" xmlns:xlink="http://www.w3.org/1999/xlink">
<g id="graph0" class="graph" transform="scale(1 1) rotate(0) translate(4 169.8)">
<title>dependencies</title>
<polygon fill="white" stroke="transparent" points="-4,4 -4,-169.8 648,-169.8 648,4 -4,4"/>
<text text-anchor="middle" x="322" y="-8.2" font-family="sans-serif" font-size="14.00">dependencies</text>
<g id="clust1" class="cluster">
<title>cluster_AdminModule</title>
<polygon fill="none" stroke="black" stroke-dasharray="1,5" points="8,-32.8 8,-157.8 636,-157.8 636,-32.8 8,-32.8"/>
</g>
<g id="clust2" class="cluster">
<title>cluster_AdminModule_declarations</title>
<polygon fill="none" stroke="black" points="184,-40.8 184,-92.8 628,-92.8 628,-40.8 184,-40.8"/>
</g>
<g id="clust6" class="cluster">
<title>cluster_AdminModule_imports</title>
<polygon fill="none" stroke="black" points="16,-40.8 16,-92.8 176,-92.8 176,-40.8 16,-40.8"/>
</g>
<!-- AlayoutComponent -->
<g id="node1" class="node">
<title>AlayoutComponent</title>
<polygon fill="#ffffb3" stroke="black" points="620.44,-84.8 493.56,-84.8 493.56,-48.8 620.44,-48.8 620.44,-84.8"/>
<text text-anchor="middle" x="557" y="-62.6" font-family="Times,serif" font-size="14.00">AlayoutComponent</text>
</g>
<!-- AdminModule -->
<g id="node4" class="node">
<title>AdminModule</title>
<polygon fill="#8dd3c7" stroke="black" points="378.44,-149.8 375.44,-153.8 354.44,-153.8 351.44,-149.8 279.56,-149.8 279.56,-113.8 378.44,-113.8 378.44,-149.8"/>
<text text-anchor="middle" x="329" y="-127.6" font-family="Times,serif" font-size="14.00">AdminModule</text>
</g>
<!-- AlayoutComponent&#45;&gt;AdminModule -->
<g id="edge1" class="edge">
<title>AlayoutComponent&#45;&gt;AdminModule</title>
<path fill="none" stroke="black" d="M557,-84.91C557,-104.14 557,-131.8 557,-131.8 557,-131.8 388.47,-131.8 388.47,-131.8"/>
<polygon fill="black" stroke="black" points="388.47,-128.3 378.47,-131.8 388.47,-135.3 388.47,-128.3"/>
</g>
<!-- DashboardComponent -->
<g id="node2" class="node">
<title>DashboardComponent</title>
<polygon fill="#ffffb3" stroke="black" points="475.98,-84.8 334.02,-84.8 334.02,-48.8 475.98,-48.8 475.98,-84.8"/>
<text text-anchor="middle" x="405" y="-62.6" font-family="Times,serif" font-size="14.00">DashboardComponent</text>
</g>
<!-- DashboardComponent&#45;&gt;AdminModule -->
<g id="edge2" class="edge">
<title>DashboardComponent&#45;&gt;AdminModule</title>
<path fill="none" stroke="black" d="M356.12,-84.91C356.12,-84.91 356.12,-103.79 356.12,-103.79"/>
<polygon fill="black" stroke="black" points="352.62,-103.79 356.12,-113.79 359.62,-103.79 352.62,-103.79"/>
</g>
<!-- SidebarComponent -->
<g id="node3" class="node">
<title>SidebarComponent</title>
<polygon fill="#ffffb3" stroke="black" points="316.1,-84.8 191.9,-84.8 191.9,-48.8 316.1,-48.8 316.1,-84.8"/>
<text text-anchor="middle" x="254" y="-62.6" font-family="Times,serif" font-size="14.00">SidebarComponent</text>
</g>
<!-- SidebarComponent&#45;&gt;AdminModule -->
<g id="edge3" class="edge">
<title>SidebarComponent&#45;&gt;AdminModule</title>
<path fill="none" stroke="black" d="M297.91,-84.91C297.91,-84.91 297.91,-103.79 297.91,-103.79"/>
<polygon fill="black" stroke="black" points="294.41,-103.79 297.91,-113.79 301.41,-103.79 294.41,-103.79"/>
</g>
<!-- AdminRoutingModule -->
<g id="node5" class="node">
<title>AdminRoutingModule</title>
<polygon fill="#8dd3c7" stroke="black" points="167.56,-84.8 164.56,-88.8 143.56,-88.8 140.56,-84.8 24.44,-84.8 24.44,-48.8 167.56,-48.8 167.56,-84.8"/>
<text text-anchor="middle" x="96" y="-62.6" font-family="Times,serif" font-size="14.00">AdminRoutingModule</text>
</g>
<!-- AdminRoutingModule&#45;&gt;AdminModule -->
<g id="edge4" class="edge">
<title>AdminRoutingModule&#45;&gt;AdminModule</title>
<path fill="none" stroke="black" d="M96,-84.91C96,-104.14 96,-131.8 96,-131.8 96,-131.8 269.59,-131.8 269.59,-131.8"/>
<polygon fill="black" stroke="black" points="269.59,-135.3 279.59,-131.8 269.59,-128.3 269.59,-135.3"/>
</g>
</g>
</svg>
