<?xml version="1.0" encoding="UTF-8" standalone="no"?>
<!DOCTYPE svg PUBLIC "-//W3C//DTD SVG 1.1//EN"
 "http://www.w3.org/Graphics/SVG/1.1/DTD/svg11.dtd">
<!-- Generated by graphviz version 5.0.0 (20220707.1540)
 -->
<!-- Title: dependencies Pages: 1 -->
<svg width="867pt" height="174pt"
 viewBox="0.00 0.00 867.00 173.80" xmlns="http://www.w3.org/2000/svg" xmlns:xlink="http://www.w3.org/1999/xlink">
<g id="graph0" class="graph" transform="scale(1 1) rotate(0) translate(4 169.8)">
<title>dependencies</title>
<polygon fill="white" stroke="transparent" points="-4,4 -4,-169.8 863,-169.8 863,4 -4,4"/>
<text text-anchor="middle" x="429.5" y="-8.2" font-family="sans-serif" font-size="14.00">dependencies</text>
<g id="clust1" class="cluster">
<title>cluster_PublicModule</title>
<polygon fill="none" stroke="black" stroke-dasharray="1,5" points="8,-32.8 8,-157.8 851,-157.8 851,-32.8 8,-32.8"/>
</g>
<g id="clust8" class="cluster">
<title>cluster_PublicModule_imports</title>
<polygon fill="none" stroke="black" points="699,-40.8 699,-92.8 843,-92.8 843,-40.8 699,-40.8"/>
</g>
<g id="clust2" class="cluster">
<title>cluster_PublicModule_declarations</title>
<polygon fill="none" stroke="black" points="16,-40.8 16,-92.8 691,-92.8 691,-40.8 16,-40.8"/>
</g>
<!-- HomeComponent -->
<g id="node1" class="node">
<title>HomeComponent</title>
<polygon fill="#ffffb3" stroke="black" points="682.55,-84.8 567.45,-84.8 567.45,-48.8 682.55,-48.8 682.55,-84.8"/>
<text text-anchor="middle" x="625" y="-62.6" font-family="Times,serif" font-size="14.00">HomeComponent</text>
</g>
<!-- PublicModule -->
<g id="node6" class="node">
<title>PublicModule</title>
<polygon fill="#8dd3c7" stroke="black" points="464.83,-149.8 461.83,-153.8 440.83,-153.8 437.83,-149.8 369.17,-149.8 369.17,-113.8 464.83,-113.8 464.83,-149.8"/>
<text text-anchor="middle" x="417" y="-127.6" font-family="Times,serif" font-size="14.00">PublicModule</text>
</g>
<!-- HomeComponent&#45;&gt;PublicModule -->
<g id="edge1" class="edge">
<title>HomeComponent&#45;&gt;PublicModule</title>
<path fill="none" stroke="black" d="M625,-84.82C625,-102.17 625,-125.8 625,-125.8 625,-125.8 474.72,-125.8 474.72,-125.8"/>
<polygon fill="black" stroke="black" points="474.72,-122.3 464.72,-125.8 474.72,-129.3 474.72,-122.3"/>
</g>
<!-- NavbarComponent -->
<g id="node2" class="node">
<title>NavbarComponent</title>
<polygon fill="#ffffb3" stroke="black" points="549.03,-84.8 426.97,-84.8 426.97,-48.8 549.03,-48.8 549.03,-84.8"/>
<text text-anchor="middle" x="488" y="-62.6" font-family="Times,serif" font-size="14.00">NavbarComponent</text>
</g>
<!-- NavbarComponent&#45;&gt;PublicModule -->
<g id="edge2" class="edge">
<title>NavbarComponent&#45;&gt;PublicModule</title>
<path fill="none" stroke="black" d="M445.7,-84.91C445.7,-84.91 445.7,-103.79 445.7,-103.79"/>
<polygon fill="black" stroke="black" points="442.2,-103.79 445.7,-113.79 449.2,-103.79 442.2,-103.79"/>
</g>
<!-- PlayoutComponent -->
<g id="node3" class="node">
<title>PlayoutComponent</title>
<polygon fill="#ffffb3" stroke="black" points="409.11,-84.8 284.89,-84.8 284.89,-48.8 409.11,-48.8 409.11,-84.8"/>
<text text-anchor="middle" x="347" y="-62.6" font-family="Times,serif" font-size="14.00">PlayoutComponent</text>
</g>
<!-- PlayoutComponent&#45;&gt;PublicModule -->
<g id="edge3" class="edge">
<title>PlayoutComponent&#45;&gt;PublicModule</title>
<path fill="none" stroke="black" d="M389.19,-84.91C389.19,-84.91 389.19,-103.79 389.19,-103.79"/>
<polygon fill="black" stroke="black" points="385.69,-103.79 389.19,-113.79 392.69,-103.79 385.69,-103.79"/>
</g>
<!-- SingleComponent -->
<g id="node4" class="node">
<title>SingleComponent</title>
<polygon fill="#ffffb3" stroke="black" points="266.61,-84.8 149.39,-84.8 149.39,-48.8 266.61,-48.8 266.61,-84.8"/>
<text text-anchor="middle" x="208" y="-62.6" font-family="Times,serif" font-size="14.00">SingleComponent</text>
</g>
<!-- SingleComponent&#45;&gt;PublicModule -->
<g id="edge4" class="edge">
<title>SingleComponent&#45;&gt;PublicModule</title>
<path fill="none" stroke="black" d="M208,-84.82C208,-102.17 208,-125.8 208,-125.8 208,-125.8 359.31,-125.8 359.31,-125.8"/>
<polygon fill="black" stroke="black" points="359.31,-129.3 369.31,-125.8 359.31,-122.3 359.31,-129.3"/>
</g>
<!-- SkillComponent -->
<g id="node5" class="node">
<title>SkillComponent</title>
<polygon fill="#ffffb3" stroke="black" points="131.79,-84.8 24.21,-84.8 24.21,-48.8 131.79,-48.8 131.79,-84.8"/>
<text text-anchor="middle" x="78" y="-62.6" font-family="Times,serif" font-size="14.00">SkillComponent</text>
</g>
<!-- SkillComponent&#45;&gt;PublicModule -->
<g id="edge5" class="edge">
<title>SkillComponent&#45;&gt;PublicModule</title>
<path fill="none" stroke="black" d="M78,-85.08C78,-106.12 78,-137.8 78,-137.8 78,-137.8 359.15,-137.8 359.15,-137.8"/>
<polygon fill="black" stroke="black" points="359.15,-141.3 369.15,-137.8 359.15,-134.3 359.15,-141.3"/>
</g>
<!-- AppRoutingModule -->
<g id="node7" class="node">
<title>AppRoutingModule</title>
<polygon fill="#8dd3c7" stroke="black" points="835.28,-84.8 832.28,-88.8 811.28,-88.8 808.28,-84.8 706.72,-84.8 706.72,-48.8 835.28,-48.8 835.28,-84.8"/>
<text text-anchor="middle" x="771" y="-62.6" font-family="Times,serif" font-size="14.00">AppRoutingModule</text>
</g>
<!-- AppRoutingModule&#45;&gt;PublicModule -->
<g id="edge6" class="edge">
<title>AppRoutingModule&#45;&gt;PublicModule</title>
<path fill="none" stroke="black" d="M771,-85.08C771,-106.12 771,-137.8 771,-137.8 771,-137.8 474.74,-137.8 474.74,-137.8"/>
<polygon fill="black" stroke="black" points="474.74,-134.3 464.74,-137.8 474.74,-141.3 474.74,-134.3"/>
</g>
</g>
</svg>
