<?xml version="1.0" encoding="UTF-8" standalone="no"?>
<!DOCTYPE svg PUBLIC "-//W3C//DTD SVG 1.1//EN"
 "http://www.w3.org/Graphics/SVG/1.1/DTD/svg11.dtd">
<!-- Generated by graphviz version 5.0.0 (20220707.1540)
 -->
<!-- Title: dependencies Pages: 1 -->
<svg width="917pt" height="174pt"
 viewBox="0.00 0.00 917.00 173.80" xmlns="http://www.w3.org/2000/svg" xmlns:xlink="http://www.w3.org/1999/xlink">
<g id="graph0" class="graph" transform="scale(1 1) rotate(0) translate(4 169.8)">
<title>dependencies</title>
<polygon fill="white" stroke="transparent" points="-4,4 -4,-169.8 913,-169.8 913,4 -4,4"/>
<text text-anchor="middle" x="454.5" y="-8.2" font-family="sans-serif" font-size="14.00">dependencies</text>
<g id="clust1" class="cluster">
<title>cluster_ProjectModule</title>
<polygon fill="none" stroke="black" stroke-dasharray="1,5" points="8,-32.8 8,-157.8 901,-157.8 901,-32.8 8,-32.8"/>
</g>
<g id="clust7" class="cluster">
<title>cluster_ProjectModule_imports</title>
<polygon fill="none" stroke="black" points="733,-40.8 733,-92.8 893,-92.8 893,-40.8 733,-40.8"/>
</g>
<g id="clust2" class="cluster">
<title>cluster_ProjectModule_declarations</title>
<polygon fill="none" stroke="black" points="16,-40.8 16,-92.8 725,-92.8 725,-40.8 16,-40.8"/>
</g>
<!-- ProjectsAddComponent -->
<g id="node1" class="node">
<title>ProjectsAddComponent</title>
<polygon fill="#ffffb3" stroke="black" points="717.05,-84.8 566.95,-84.8 566.95,-48.8 717.05,-48.8 717.05,-84.8"/>
<text text-anchor="middle" x="642" y="-62.6" font-family="Times,serif" font-size="14.00">ProjectsAddComponent</text>
</g>
<!-- ProjectModule -->
<g id="node5" class="node">
<title>ProjectModule</title>
<polygon fill="#8dd3c7" stroke="black" points="516.71,-149.8 513.71,-153.8 492.71,-153.8 489.71,-149.8 417.29,-149.8 417.29,-113.8 516.71,-113.8 516.71,-149.8"/>
<text text-anchor="middle" x="467" y="-127.6" font-family="Times,serif" font-size="14.00">ProjectModule</text>
</g>
<!-- ProjectsAddComponent&#45;&gt;ProjectModule -->
<g id="edge1" class="edge">
<title>ProjectsAddComponent&#45;&gt;ProjectModule</title>
<path fill="none" stroke="black" d="M642,-84.82C642,-102.17 642,-125.8 642,-125.8 642,-125.8 526.68,-125.8 526.68,-125.8"/>
<polygon fill="black" stroke="black" points="526.68,-122.3 516.68,-125.8 526.68,-129.3 526.68,-122.3"/>
</g>
<!-- ProjectsDeleteComponent -->
<g id="node2" class="node">
<title>ProjectsDeleteComponent</title>
<polygon fill="#ffffb3" stroke="black" points="548.47,-84.8 385.53,-84.8 385.53,-48.8 548.47,-48.8 548.47,-84.8"/>
<text text-anchor="middle" x="467" y="-62.6" font-family="Times,serif" font-size="14.00">ProjectsDeleteComponent</text>
</g>
<!-- ProjectsDeleteComponent&#45;&gt;ProjectModule -->
<g id="edge2" class="edge">
<title>ProjectsDeleteComponent&#45;&gt;ProjectModule</title>
<path fill="none" stroke="black" d="M467,-84.91C467,-84.91 467,-103.79 467,-103.79"/>
<polygon fill="black" stroke="black" points="463.5,-103.79 467,-113.79 470.5,-103.79 463.5,-103.79"/>
</g>
<!-- ProjectsIndexComponent -->
<g id="node3" class="node">
<title>ProjectsIndexComponent</title>
<polygon fill="#ffffb3" stroke="black" points="367.31,-84.8 208.69,-84.8 208.69,-48.8 367.31,-48.8 367.31,-84.8"/>
<text text-anchor="middle" x="288" y="-62.6" font-family="Times,serif" font-size="14.00">ProjectsIndexComponent</text>
</g>
<!-- ProjectsIndexComponent&#45;&gt;ProjectModule -->
<g id="edge3" class="edge">
<title>ProjectsIndexComponent&#45;&gt;ProjectModule</title>
<path fill="none" stroke="black" d="M288,-84.82C288,-102.17 288,-125.8 288,-125.8 288,-125.8 407.14,-125.8 407.14,-125.8"/>
<polygon fill="black" stroke="black" points="407.14,-129.3 417.14,-125.8 407.14,-122.3 407.14,-129.3"/>
</g>
<!-- ProjectsUpdateComponent -->
<g id="node4" class="node">
<title>ProjectsUpdateComponent</title>
<polygon fill="#ffffb3" stroke="black" points="190.36,-84.8 23.64,-84.8 23.64,-48.8 190.36,-48.8 190.36,-84.8"/>
<text text-anchor="middle" x="107" y="-62.6" font-family="Times,serif" font-size="14.00">ProjectsUpdateComponent</text>
</g>
<!-- ProjectsUpdateComponent&#45;&gt;ProjectModule -->
<g id="edge4" class="edge">
<title>ProjectsUpdateComponent&#45;&gt;ProjectModule</title>
<path fill="none" stroke="black" d="M107,-85.08C107,-106.12 107,-137.8 107,-137.8 107,-137.8 407.32,-137.8 407.32,-137.8"/>
<polygon fill="black" stroke="black" points="407.32,-141.3 417.32,-137.8 407.32,-134.3 407.32,-141.3"/>
</g>
<!-- ProjectRoutingModule -->
<g id="node6" class="node">
<title>ProjectRoutingModule</title>
<polygon fill="#8dd3c7" stroke="black" points="885.32,-84.8 882.32,-88.8 861.32,-88.8 858.32,-84.8 740.68,-84.8 740.68,-48.8 885.32,-48.8 885.32,-84.8"/>
<text text-anchor="middle" x="813" y="-62.6" font-family="Times,serif" font-size="14.00">ProjectRoutingModule</text>
</g>
<!-- ProjectRoutingModule&#45;&gt;ProjectModule -->
<g id="edge5" class="edge">
<title>ProjectRoutingModule&#45;&gt;ProjectModule</title>
<path fill="none" stroke="black" d="M813,-85.08C813,-106.12 813,-137.8 813,-137.8 813,-137.8 526.94,-137.8 526.94,-137.8"/>
<polygon fill="black" stroke="black" points="526.94,-134.3 516.94,-137.8 526.94,-141.3 526.94,-134.3"/>
</g>
</g>
</svg>
