<?xml version="1.0" encoding="UTF-8" standalone="no"?>
<!DOCTYPE svg PUBLIC "-//W3C//DTD SVG 1.1//EN"
 "http://www.w3.org/Graphics/SVG/1.1/DTD/svg11.dtd">
<!-- Generated by graphviz version 5.0.0 (20220707.1540)
 -->
<!-- Title: dependencies Pages: 1 -->
<svg width="4801pt" height="247pt"
 viewBox="0.00 0.00 4801.00 246.80" xmlns="http://www.w3.org/2000/svg" xmlns:xlink="http://www.w3.org/1999/xlink">
<g id="graph0" class="graph" transform="scale(1 1) rotate(0) translate(4 242.8)">
<title>dependencies</title>
<polygon fill="white" stroke="transparent" points="-4,4 -4,-242.8 4797,-242.8 4797,4 -4,4"/>
<text text-anchor="middle" x="2396.5" y="-8.2" font-family="sans-serif" font-size="14.00">dependencies</text>
<g id="clust1" class="cluster">
<title>cluster_AdminModule</title>
<polygon fill="none" stroke="black" stroke-dasharray="1,5" points="8,-32.8 8,-157.8 636,-157.8 636,-32.8 8,-32.8"/>
</g>
<g id="clust2" class="cluster">
<title>cluster_AdminModule_declarations</title>
<polygon fill="none" stroke="black" points="184,-40.8 184,-92.8 628,-92.8 628,-40.8 184,-40.8"/>
</g>
<g id="clust6" class="cluster">
<title>cluster_AdminModule_imports</title>
<polygon fill="none" stroke="black" points="16,-40.8 16,-92.8 176,-92.8 176,-40.8 16,-40.8"/>
</g>
<g id="clust16" class="cluster">
<title>cluster_AppModule</title>
<polygon fill="none" stroke="black" stroke-dasharray="1,5" points="644,-32.8 644,-230.8 1341,-230.8 1341,-32.8 644,-32.8"/>
</g>
<g id="clust17" class="cluster">
<title>cluster_AppModule_declarations</title>
<polygon fill="none" stroke="black" points="652,-40.8 652,-92.8 1181,-92.8 1181,-40.8 652,-40.8"/>
</g>
<g id="clust22" class="cluster">
<title>cluster_AppModule_imports</title>
<polygon fill="none" stroke="black" points="1189,-40.8 1189,-92.8 1333,-92.8 1333,-40.8 1189,-40.8"/>
</g>
<g id="clust24" class="cluster">
<title>cluster_AppModule_bootstrap</title>
<polygon fill="none" stroke="black" points="932,-170.8 932,-222.8 1056,-222.8 1056,-170.8 932,-170.8"/>
</g>
<g id="clust32" class="cluster">
<title>cluster_AuthModule</title>
<polygon fill="none" stroke="black" stroke-dasharray="1,5" points="2048,-32.8 2048,-157.8 2212,-157.8 2212,-32.8 2048,-32.8"/>
</g>
<g id="clust34" class="cluster">
<title>cluster_AuthModule_imports</title>
<polygon fill="none" stroke="black" points="2056,-40.8 2056,-92.8 2204,-92.8 2204,-40.8 2056,-40.8"/>
</g>
<g id="clust44" class="cluster">
<title>cluster_ProjectModule</title>
<polygon fill="none" stroke="black" stroke-dasharray="1,5" points="2220,-32.8 2220,-157.8 3113,-157.8 3113,-32.8 2220,-32.8"/>
</g>
<g id="clust45" class="cluster">
<title>cluster_ProjectModule_declarations</title>
<polygon fill="none" stroke="black" points="2396,-40.8 2396,-92.8 3105,-92.8 3105,-40.8 2396,-40.8"/>
</g>
<g id="clust50" class="cluster">
<title>cluster_ProjectModule_imports</title>
<polygon fill="none" stroke="black" points="2228,-40.8 2228,-92.8 2388,-92.8 2388,-40.8 2228,-40.8"/>
</g>
<g id="clust60" class="cluster">
<title>cluster_PublicModule</title>
<polygon fill="none" stroke="black" stroke-dasharray="1,5" points="1349,-32.8 1349,-157.8 2040,-157.8 2040,-32.8 1349,-32.8"/>
</g>
<g id="clust61" class="cluster">
<title>cluster_PublicModule_declarations</title>
<polygon fill="none" stroke="black" points="1357,-40.8 1357,-92.8 2032,-92.8 2032,-40.8 1357,-40.8"/>
</g>
<g id="clust71" class="cluster">
<title>cluster_SkillModule</title>
<polygon fill="none" stroke="black" stroke-dasharray="1,5" points="3121,-32.8 3121,-157.8 3949,-157.8 3949,-32.8 3121,-32.8"/>
</g>
<g id="clust72" class="cluster">
<title>cluster_SkillModule_declarations</title>
<polygon fill="none" stroke="black" points="3285,-40.8 3285,-92.8 3941,-92.8 3941,-40.8 3285,-40.8"/>
</g>
<g id="clust77" class="cluster">
<title>cluster_SkillModule_imports</title>
<polygon fill="none" stroke="black" points="3129,-40.8 3129,-92.8 3277,-92.8 3277,-40.8 3129,-40.8"/>
</g>
<g id="clust87" class="cluster">
<title>cluster_UserModule</title>
<polygon fill="none" stroke="black" stroke-dasharray="1,5" points="3957,-32.8 3957,-157.8 4785,-157.8 4785,-32.8 3957,-32.8"/>
</g>
<g id="clust88" class="cluster">
<title>cluster_UserModule_declarations</title>
<polygon fill="none" stroke="black" points="4121,-40.8 4121,-92.8 4777,-92.8 4777,-40.8 4121,-40.8"/>
</g>
<g id="clust93" class="cluster">
<title>cluster_UserModule_imports</title>
<polygon fill="none" stroke="black" points="3965,-40.8 3965,-92.8 4113,-92.8 4113,-40.8 3965,-40.8"/>
</g>
<!-- AlayoutComponent -->
<g id="node1" class="node">
<title>AlayoutComponent</title>
<polygon fill="#ffffb3" stroke="black" points="620.44,-84.8 493.56,-84.8 493.56,-48.8 620.44,-48.8 620.44,-84.8"/>
<text text-anchor="middle" x="557" y="-62.6" font-family="Times,serif" font-size="14.00">AlayoutComponent</text>
</g>
<!-- AdminModule -->
<g id="node4" class="node">
<title>AdminModule</title>
<polygon fill="#8dd3c7" stroke="black" points="378.44,-149.8 375.44,-153.8 354.44,-153.8 351.44,-149.8 279.56,-149.8 279.56,-113.8 378.44,-113.8 378.44,-149.8"/>
<text text-anchor="middle" x="329" y="-127.6" font-family="Times,serif" font-size="14.00">AdminModule</text>
</g>
<!-- AlayoutComponent&#45;&gt;AdminModule -->
<g id="edge1" class="edge">
<title>AlayoutComponent&#45;&gt;AdminModule</title>
<path fill="none" stroke="black" d="M557,-84.83C557,-101.2 557,-122.8 557,-122.8 557,-122.8 388.47,-122.8 388.47,-122.8"/>
<polygon fill="black" stroke="black" points="388.47,-119.3 378.47,-122.8 388.47,-126.3 388.47,-119.3"/>
</g>
<!-- DashboardComponent -->
<g id="node2" class="node">
<title>DashboardComponent</title>
<polygon fill="#ffffb3" stroke="black" points="475.98,-84.8 334.02,-84.8 334.02,-48.8 475.98,-48.8 475.98,-84.8"/>
<text text-anchor="middle" x="405" y="-62.6" font-family="Times,serif" font-size="14.00">DashboardComponent</text>
</g>
<!-- DashboardComponent&#45;&gt;AdminModule -->
<g id="edge2" class="edge">
<title>DashboardComponent&#45;&gt;AdminModule</title>
<path fill="none" stroke="black" d="M356.12,-84.91C356.12,-84.91 356.12,-103.79 356.12,-103.79"/>
<polygon fill="black" stroke="black" points="352.62,-103.79 356.12,-113.79 359.62,-103.79 352.62,-103.79"/>
</g>
<!-- SidebarComponent -->
<g id="node3" class="node">
<title>SidebarComponent</title>
<polygon fill="#ffffb3" stroke="black" points="316.1,-84.8 191.9,-84.8 191.9,-48.8 316.1,-48.8 316.1,-84.8"/>
<text text-anchor="middle" x="254" y="-62.6" font-family="Times,serif" font-size="14.00">SidebarComponent</text>
</g>
<!-- SidebarComponent&#45;&gt;AdminModule -->
<g id="edge3" class="edge">
<title>SidebarComponent&#45;&gt;AdminModule</title>
<path fill="none" stroke="black" d="M297.91,-84.91C297.91,-84.91 297.91,-103.79 297.91,-103.79"/>
<polygon fill="black" stroke="black" points="294.41,-103.79 297.91,-113.79 301.41,-103.79 294.41,-103.79"/>
</g>
<!-- AdminRoutingModule -->
<g id="node5" class="node">
<title>AdminRoutingModule</title>
<polygon fill="#8dd3c7" stroke="black" points="167.56,-84.8 164.56,-88.8 143.56,-88.8 140.56,-84.8 24.44,-84.8 24.44,-48.8 167.56,-48.8 167.56,-84.8"/>
<text text-anchor="middle" x="96" y="-62.6" font-family="Times,serif" font-size="14.00">AdminRoutingModule</text>
</g>
<!-- AdminRoutingModule&#45;&gt;AdminModule -->
<g id="edge4" class="edge">
<title>AdminRoutingModule&#45;&gt;AdminModule</title>
<path fill="none" stroke="black" d="M96,-84.91C96,-104.14 96,-131.8 96,-131.8 96,-131.8 269.59,-131.8 269.59,-131.8"/>
<polygon fill="black" stroke="black" points="269.59,-135.3 279.59,-131.8 269.59,-128.3 269.59,-135.3"/>
</g>
<!-- AppComponent -->
<g id="node6" class="node">
<title>AppComponent</title>
<polygon fill="#ffffb3" stroke="black" points="1172.94,-84.8 1067.06,-84.8 1067.06,-48.8 1172.94,-48.8 1172.94,-84.8"/>
<text text-anchor="middle" x="1120" y="-62.6" font-family="Times,serif" font-size="14.00">AppComponent</text>
</g>
<!-- AppModule -->
<g id="node10" class="node">
<title>AppModule</title>
<polygon fill="#8dd3c7" stroke="black" points="1035.66,-149.8 1032.66,-153.8 1011.66,-153.8 1008.66,-149.8 952.34,-149.8 952.34,-113.8 1035.66,-113.8 1035.66,-149.8"/>
<text text-anchor="middle" x="994" y="-127.6" font-family="Times,serif" font-size="14.00">AppModule</text>
</g>
<!-- AppComponent&#45;&gt;AppModule -->
<g id="edge5" class="edge">
<title>AppComponent&#45;&gt;AppModule</title>
<path fill="none" stroke="black" d="M1120,-84.93C1120,-105.37 1120,-135.8 1120,-135.8 1120,-135.8 1045.96,-135.8 1045.96,-135.8"/>
<polygon fill="black" stroke="black" points="1045.96,-132.3 1035.96,-135.8 1045.96,-139.3 1045.96,-132.3"/>
</g>
<!-- ErrorComponent -->
<g id="node7" class="node">
<title>ErrorComponent</title>
<polygon fill="#ffffb3" stroke="black" points="1049.37,-84.8 938.63,-84.8 938.63,-48.8 1049.37,-48.8 1049.37,-84.8"/>
<text text-anchor="middle" x="994" y="-62.6" font-family="Times,serif" font-size="14.00">ErrorComponent</text>
</g>
<!-- ErrorComponent&#45;&gt;AppModule -->
<g id="edge6" class="edge">
<title>ErrorComponent&#45;&gt;AppModule</title>
<path fill="none" stroke="black" d="M994,-84.91C994,-84.91 994,-103.79 994,-103.79"/>
<polygon fill="black" stroke="black" points="990.5,-103.79 994,-113.79 997.5,-103.79 990.5,-103.79"/>
</g>
<!-- LoginComponent -->
<g id="node8" class="node">
<title>LoginComponent</title>
<polygon fill="#ffffb3" stroke="black" points="920.27,-84.8 805.73,-84.8 805.73,-48.8 920.27,-48.8 920.27,-84.8"/>
<text text-anchor="middle" x="863" y="-62.6" font-family="Times,serif" font-size="14.00">LoginComponent</text>
</g>
<!-- LoginComponent&#45;&gt;AppModule -->
<g id="edge7" class="edge">
<title>LoginComponent&#45;&gt;AppModule</title>
<path fill="none" stroke="black" d="M863,-84.91C863,-104.14 863,-131.8 863,-131.8 863,-131.8 942.19,-131.8 942.19,-131.8"/>
<polygon fill="black" stroke="black" points="942.19,-135.3 952.19,-131.8 942.19,-128.3 942.19,-135.3"/>
</g>
<!-- RegisterComponent -->
<g id="node9" class="node">
<title>RegisterComponent</title>
<polygon fill="#ffffb3" stroke="black" points="787.99,-84.8 660.01,-84.8 660.01,-48.8 787.99,-48.8 787.99,-84.8"/>
<text text-anchor="middle" x="724" y="-62.6" font-family="Times,serif" font-size="14.00">RegisterComponent</text>
</g>
<!-- RegisterComponent&#45;&gt;AppModule -->
<g id="edge8" class="edge">
<title>RegisterComponent&#45;&gt;AppModule</title>
<path fill="none" stroke="black" d="M724,-85.09C724,-107.01 724,-140.8 724,-140.8 724,-140.8 942.11,-140.8 942.11,-140.8"/>
<polygon fill="black" stroke="black" points="942.11,-144.3 952.11,-140.8 942.11,-137.3 942.11,-144.3"/>
</g>
<!-- AppComponent  -->
<g id="node12" class="node">
<title>AppComponent </title>
<polygon fill="#80b1d3" stroke="black" points="1048.44,-214.8 939.56,-214.8 939.56,-178.8 1048.44,-178.8 1048.44,-214.8"/>
<text text-anchor="middle" x="994" y="-192.6" font-family="Times,serif" font-size="14.00">AppComponent </text>
</g>
<!-- AppModule&#45;&gt;AppComponent  -->
<g id="edge10" class="edge">
<title>AppModule&#45;&gt;AppComponent </title>
<path fill="none" stroke="black" stroke-dasharray="1,5" d="M994,-149.91C994,-149.91 994,-168.79 994,-168.79"/>
<polygon fill="black" stroke="black" points="990.5,-168.79 994,-178.79 997.5,-168.79 990.5,-168.79"/>
</g>
<!-- AppRoutingModule -->
<g id="node11" class="node">
<title>AppRoutingModule</title>
<polygon fill="#8dd3c7" stroke="black" points="1325.28,-84.8 1322.28,-88.8 1301.28,-88.8 1298.28,-84.8 1196.72,-84.8 1196.72,-48.8 1325.28,-48.8 1325.28,-84.8"/>
<text text-anchor="middle" x="1261" y="-62.6" font-family="Times,serif" font-size="14.00">AppRoutingModule</text>
</g>
<!-- AppRoutingModule&#45;&gt;AppModule -->
<g id="edge9" class="edge">
<title>AppRoutingModule&#45;&gt;AppModule</title>
<path fill="none" stroke="black" d="M1239.54,-84.81C1239.54,-107.29 1239.54,-142.8 1239.54,-142.8 1239.54,-142.8 1045.93,-142.8 1045.93,-142.8"/>
<polygon fill="black" stroke="black" points="1045.93,-139.3 1035.93,-142.8 1045.93,-146.3 1045.93,-139.3"/>
</g>
<!-- PublicModule -->
<g id="node26" class="node">
<title>PublicModule</title>
<polygon fill="#8dd3c7" stroke="black" points="1665.83,-149.8 1662.83,-153.8 1641.83,-153.8 1638.83,-149.8 1570.17,-149.8 1570.17,-113.8 1665.83,-113.8 1665.83,-149.8"/>
<text text-anchor="middle" x="1618" y="-127.6" font-family="Times,serif" font-size="14.00">PublicModule</text>
</g>
<!-- AppRoutingModule&#45;&gt;PublicModule -->
<g id="edge22" class="edge">
<title>AppRoutingModule&#45;&gt;PublicModule</title>
<path fill="none" stroke="black" d="M1282.46,-85.07C1282.46,-103.36 1282.46,-128.8 1282.46,-128.8 1282.46,-128.8 1560.28,-128.8 1560.28,-128.8"/>
<polygon fill="black" stroke="black" points="1560.28,-132.3 1570.28,-128.8 1560.28,-125.3 1560.28,-132.3"/>
</g>
<!-- AuthRoutingModule -->
<g id="node13" class="node">
<title>AuthRoutingModule</title>
<polygon fill="#8dd3c7" stroke="black" points="2196.17,-84.8 2193.17,-88.8 2172.17,-88.8 2169.17,-84.8 2063.83,-84.8 2063.83,-48.8 2196.17,-48.8 2196.17,-84.8"/>
<text text-anchor="middle" x="2130" y="-62.6" font-family="Times,serif" font-size="14.00">AuthRoutingModule</text>
</g>
<!-- AuthModule -->
<g id="node14" class="node">
<title>AuthModule</title>
<polygon fill="#8dd3c7" stroke="black" points="2173.55,-149.8 2170.55,-153.8 2149.55,-153.8 2146.55,-149.8 2086.45,-149.8 2086.45,-113.8 2173.55,-113.8 2173.55,-149.8"/>
<text text-anchor="middle" x="2130" y="-127.6" font-family="Times,serif" font-size="14.00">AuthModule</text>
</g>
<!-- AuthRoutingModule&#45;&gt;AuthModule -->
<g id="edge11" class="edge">
<title>AuthRoutingModule&#45;&gt;AuthModule</title>
<path fill="none" stroke="black" d="M2130,-84.91C2130,-84.91 2130,-103.79 2130,-103.79"/>
<polygon fill="black" stroke="black" points="2126.5,-103.79 2130,-113.79 2133.5,-103.79 2126.5,-103.79"/>
</g>
<!-- ProjectsAddComponent -->
<g id="node15" class="node">
<title>ProjectsAddComponent</title>
<polygon fill="#ffffb3" stroke="black" points="3097.05,-84.8 2946.95,-84.8 2946.95,-48.8 3097.05,-48.8 3097.05,-84.8"/>
<text text-anchor="middle" x="3022" y="-62.6" font-family="Times,serif" font-size="14.00">ProjectsAddComponent</text>
</g>
<!-- ProjectModule -->
<g id="node19" class="node">
<title>ProjectModule</title>
<polygon fill="#8dd3c7" stroke="black" points="2717.71,-149.8 2714.71,-153.8 2693.71,-153.8 2690.71,-149.8 2618.29,-149.8 2618.29,-113.8 2717.71,-113.8 2717.71,-149.8"/>
<text text-anchor="middle" x="2668" y="-127.6" font-family="Times,serif" font-size="14.00">ProjectModule</text>
</g>
<!-- ProjectsAddComponent&#45;&gt;ProjectModule -->
<g id="edge12" class="edge">
<title>ProjectsAddComponent&#45;&gt;ProjectModule</title>
<path fill="none" stroke="black" d="M3022,-85.07C3022,-103.36 3022,-128.8 3022,-128.8 3022,-128.8 2727.97,-128.8 2727.97,-128.8"/>
<polygon fill="black" stroke="black" points="2727.97,-125.3 2717.97,-128.8 2727.97,-132.3 2727.97,-125.3"/>
</g>
<!-- ProjectsDeleteComponent -->
<g id="node16" class="node">
<title>ProjectsDeleteComponent</title>
<polygon fill="#ffffb3" stroke="black" points="2928.47,-84.8 2765.53,-84.8 2765.53,-48.8 2928.47,-48.8 2928.47,-84.8"/>
<text text-anchor="middle" x="2847" y="-62.6" font-family="Times,serif" font-size="14.00">ProjectsDeleteComponent</text>
</g>
<!-- ProjectsDeleteComponent&#45;&gt;ProjectModule -->
<g id="edge13" class="edge">
<title>ProjectsDeleteComponent&#45;&gt;ProjectModule</title>
<path fill="none" stroke="black" d="M2847,-84.81C2847,-100.85 2847,-121.8 2847,-121.8 2847,-121.8 2727.86,-121.8 2727.86,-121.8"/>
<polygon fill="black" stroke="black" points="2727.86,-118.3 2717.86,-121.8 2727.86,-125.3 2727.86,-118.3"/>
</g>
<!-- ProjectsIndexComponent -->
<g id="node17" class="node">
<title>ProjectsIndexComponent</title>
<polygon fill="#ffffb3" stroke="black" points="2747.31,-84.8 2588.69,-84.8 2588.69,-48.8 2747.31,-48.8 2747.31,-84.8"/>
<text text-anchor="middle" x="2668" y="-62.6" font-family="Times,serif" font-size="14.00">ProjectsIndexComponent</text>
</g>
<!-- ProjectsIndexComponent&#45;&gt;ProjectModule -->
<g id="edge14" class="edge">
<title>ProjectsIndexComponent&#45;&gt;ProjectModule</title>
<path fill="none" stroke="black" d="M2668,-84.91C2668,-84.91 2668,-103.79 2668,-103.79"/>
<polygon fill="black" stroke="black" points="2664.5,-103.79 2668,-113.79 2671.5,-103.79 2664.5,-103.79"/>
</g>
<!-- ProjectsUpdateComponent -->
<g id="node18" class="node">
<title>ProjectsUpdateComponent</title>
<polygon fill="#ffffb3" stroke="black" points="2570.36,-84.8 2403.64,-84.8 2403.64,-48.8 2570.36,-48.8 2570.36,-84.8"/>
<text text-anchor="middle" x="2487" y="-62.6" font-family="Times,serif" font-size="14.00">ProjectsUpdateComponent</text>
</g>
<!-- ProjectsUpdateComponent&#45;&gt;ProjectModule -->
<g id="edge15" class="edge">
<title>ProjectsUpdateComponent&#45;&gt;ProjectModule</title>
<path fill="none" stroke="black" d="M2487,-84.82C2487,-102.17 2487,-125.8 2487,-125.8 2487,-125.8 2608.06,-125.8 2608.06,-125.8"/>
<polygon fill="black" stroke="black" points="2608.06,-129.3 2618.06,-125.8 2608.06,-122.3 2608.06,-129.3"/>
</g>
<!-- ProjectRoutingModule -->
<g id="node20" class="node">
<title>ProjectRoutingModule</title>
<polygon fill="#8dd3c7" stroke="black" points="2380.32,-84.8 2377.32,-88.8 2356.32,-88.8 2353.32,-84.8 2235.68,-84.8 2235.68,-48.8 2380.32,-48.8 2380.32,-84.8"/>
<text text-anchor="middle" x="2308" y="-62.6" font-family="Times,serif" font-size="14.00">ProjectRoutingModule</text>
</g>
<!-- ProjectRoutingModule&#45;&gt;ProjectModule -->
<g id="edge16" class="edge">
<title>ProjectRoutingModule&#45;&gt;ProjectModule</title>
<path fill="none" stroke="black" d="M2308,-85.08C2308,-106.12 2308,-137.8 2308,-137.8 2308,-137.8 2608.32,-137.8 2608.32,-137.8"/>
<polygon fill="black" stroke="black" points="2608.32,-141.3 2618.32,-137.8 2608.32,-134.3 2608.32,-141.3"/>
</g>
<!-- HomeComponent -->
<g id="node21" class="node">
<title>HomeComponent</title>
<polygon fill="#ffffb3" stroke="black" points="2023.55,-84.8 1908.45,-84.8 1908.45,-48.8 2023.55,-48.8 2023.55,-84.8"/>
<text text-anchor="middle" x="1966" y="-62.6" font-family="Times,serif" font-size="14.00">HomeComponent</text>
</g>
<!-- HomeComponent&#45;&gt;PublicModule -->
<g id="edge17" class="edge">
<title>HomeComponent&#45;&gt;PublicModule</title>
<path fill="none" stroke="black" d="M1966,-85.08C1966,-106.12 1966,-137.8 1966,-137.8 1966,-137.8 1676.02,-137.8 1676.02,-137.8"/>
<polygon fill="black" stroke="black" points="1676.02,-134.3 1666.02,-137.8 1676.02,-141.3 1676.02,-134.3"/>
</g>
<!-- NavbarComponent -->
<g id="node22" class="node">
<title>NavbarComponent</title>
<polygon fill="#ffffb3" stroke="black" points="1890.03,-84.8 1767.97,-84.8 1767.97,-48.8 1890.03,-48.8 1890.03,-84.8"/>
<text text-anchor="middle" x="1829" y="-62.6" font-family="Times,serif" font-size="14.00">NavbarComponent</text>
</g>
<!-- NavbarComponent&#45;&gt;PublicModule -->
<g id="edge18" class="edge">
<title>NavbarComponent&#45;&gt;PublicModule</title>
<path fill="none" stroke="black" d="M1829,-84.82C1829,-102.17 1829,-125.8 1829,-125.8 1829,-125.8 1675.88,-125.8 1675.88,-125.8"/>
<polygon fill="black" stroke="black" points="1675.88,-122.3 1665.88,-125.8 1675.88,-129.3 1675.88,-122.3"/>
</g>
<!-- PlayoutComponent -->
<g id="node23" class="node">
<title>PlayoutComponent</title>
<polygon fill="#ffffb3" stroke="black" points="1750.11,-84.8 1625.89,-84.8 1625.89,-48.8 1750.11,-48.8 1750.11,-84.8"/>
<text text-anchor="middle" x="1688" y="-62.6" font-family="Times,serif" font-size="14.00">PlayoutComponent</text>
</g>
<!-- PlayoutComponent&#45;&gt;PublicModule -->
<g id="edge19" class="edge">
<title>PlayoutComponent&#45;&gt;PublicModule</title>
<path fill="none" stroke="black" d="M1645.81,-84.91C1645.81,-84.91 1645.81,-103.79 1645.81,-103.79"/>
<polygon fill="black" stroke="black" points="1642.31,-103.79 1645.81,-113.79 1649.31,-103.79 1642.31,-103.79"/>
</g>
<!-- SingleComponent -->
<g id="node24" class="node">
<title>SingleComponent</title>
<polygon fill="#ffffb3" stroke="black" points="1607.61,-84.8 1490.39,-84.8 1490.39,-48.8 1607.61,-48.8 1607.61,-84.8"/>
<text text-anchor="middle" x="1549" y="-62.6" font-family="Times,serif" font-size="14.00">SingleComponent</text>
</g>
<!-- SingleComponent&#45;&gt;PublicModule -->
<g id="edge20" class="edge">
<title>SingleComponent&#45;&gt;PublicModule</title>
<path fill="none" stroke="black" d="M1588.94,-84.91C1588.94,-84.91 1588.94,-103.79 1588.94,-103.79"/>
<polygon fill="black" stroke="black" points="1585.44,-103.79 1588.94,-113.79 1592.44,-103.79 1585.44,-103.79"/>
</g>
<!-- SkillComponent -->
<g id="node25" class="node">
<title>SkillComponent</title>
<polygon fill="#ffffb3" stroke="black" points="1472.79,-84.8 1365.21,-84.8 1365.21,-48.8 1472.79,-48.8 1472.79,-84.8"/>
<text text-anchor="middle" x="1419" y="-62.6" font-family="Times,serif" font-size="14.00">SkillComponent</text>
</g>
<!-- SkillComponent&#45;&gt;PublicModule -->
<g id="edge21" class="edge">
<title>SkillComponent&#45;&gt;PublicModule</title>
<path fill="none" stroke="black" d="M1419,-84.81C1419,-100.85 1419,-121.8 1419,-121.8 1419,-121.8 1560.08,-121.8 1560.08,-121.8"/>
<polygon fill="black" stroke="black" points="1560.08,-125.3 1570.08,-121.8 1560.08,-118.3 1560.08,-125.3"/>
</g>
<!-- SkillsAddComponent -->
<g id="node27" class="node">
<title>SkillsAddComponent</title>
<polygon fill="#ffffb3" stroke="black" points="3932.85,-84.8 3795.15,-84.8 3795.15,-48.8 3932.85,-48.8 3932.85,-84.8"/>
<text text-anchor="middle" x="3864" y="-62.6" font-family="Times,serif" font-size="14.00">SkillsAddComponent</text>
</g>
<!-- SkillModule -->
<g id="node31" class="node">
<title>SkillModule</title>
<polygon fill="#8dd3c7" stroke="black" points="3580.01,-149.8 3577.01,-153.8 3556.01,-153.8 3553.01,-149.8 3493.99,-149.8 3493.99,-113.8 3580.01,-113.8 3580.01,-149.8"/>
<text text-anchor="middle" x="3537" y="-127.6" font-family="Times,serif" font-size="14.00">SkillModule</text>
</g>
<!-- SkillsAddComponent&#45;&gt;SkillModule -->
<g id="edge23" class="edge">
<title>SkillsAddComponent&#45;&gt;SkillModule</title>
<path fill="none" stroke="black" d="M3864,-84.81C3864,-107.29 3864,-142.8 3864,-142.8 3864,-142.8 3590.09,-142.8 3590.09,-142.8"/>
<polygon fill="black" stroke="black" points="3590.09,-139.3 3580.09,-142.8 3590.09,-146.3 3590.09,-139.3"/>
</g>
<!-- SkillsDeleteComponent -->
<g id="node28" class="node">
<title>SkillsDeleteComponent</title>
<polygon fill="#ffffb3" stroke="black" points="3776.77,-84.8 3627.23,-84.8 3627.23,-48.8 3776.77,-48.8 3776.77,-84.8"/>
<text text-anchor="middle" x="3702" y="-62.6" font-family="Times,serif" font-size="14.00">SkillsDeleteComponent</text>
</g>
<!-- SkillsDeleteComponent&#45;&gt;SkillModule -->
<g id="edge24" class="edge">
<title>SkillsDeleteComponent&#45;&gt;SkillModule</title>
<path fill="none" stroke="black" d="M3702,-84.93C3702,-105.37 3702,-135.8 3702,-135.8 3702,-135.8 3590.35,-135.8 3590.35,-135.8"/>
<polygon fill="black" stroke="black" points="3590.35,-132.3 3580.35,-135.8 3590.35,-139.3 3590.35,-132.3"/>
</g>
<!-- SkillsIndexComponent -->
<g id="node29" class="node">
<title>SkillsIndexComponent</title>
<polygon fill="#ffffb3" stroke="black" points="3609.61,-84.8 3464.39,-84.8 3464.39,-48.8 3609.61,-48.8 3609.61,-84.8"/>
<text text-anchor="middle" x="3537" y="-62.6" font-family="Times,serif" font-size="14.00">SkillsIndexComponent</text>
</g>
<!-- SkillsIndexComponent&#45;&gt;SkillModule -->
<g id="edge25" class="edge">
<title>SkillsIndexComponent&#45;&gt;SkillModule</title>
<path fill="none" stroke="black" d="M3537,-84.91C3537,-84.91 3537,-103.79 3537,-103.79"/>
<polygon fill="black" stroke="black" points="3533.5,-103.79 3537,-113.79 3540.5,-103.79 3533.5,-103.79"/>
</g>
<!-- SkillsUpdateComponent -->
<g id="node30" class="node">
<title>SkillsUpdateComponent</title>
<polygon fill="#ffffb3" stroke="black" points="3446.66,-84.8 3293.34,-84.8 3293.34,-48.8 3446.66,-48.8 3446.66,-84.8"/>
<text text-anchor="middle" x="3370" y="-62.6" font-family="Times,serif" font-size="14.00">SkillsUpdateComponent</text>
</g>
<!-- SkillsUpdateComponent&#45;&gt;SkillModule -->
<g id="edge26" class="edge">
<title>SkillsUpdateComponent&#45;&gt;SkillModule</title>
<path fill="none" stroke="black" d="M3370,-84.93C3370,-105.37 3370,-135.8 3370,-135.8 3370,-135.8 3483.99,-135.8 3483.99,-135.8"/>
<polygon fill="black" stroke="black" points="3483.99,-139.3 3493.99,-135.8 3483.99,-132.3 3483.99,-139.3"/>
</g>
<!-- SkillRoutingModule -->
<g id="node32" class="node">
<title>SkillRoutingModule</title>
<polygon fill="#8dd3c7" stroke="black" points="3268.62,-84.8 3265.62,-88.8 3244.62,-88.8 3241.62,-84.8 3137.38,-84.8 3137.38,-48.8 3268.62,-48.8 3268.62,-84.8"/>
<text text-anchor="middle" x="3203" y="-62.6" font-family="Times,serif" font-size="14.00">SkillRoutingModule</text>
</g>
<!-- SkillRoutingModule&#45;&gt;SkillModule -->
<g id="edge27" class="edge">
<title>SkillRoutingModule&#45;&gt;SkillModule</title>
<path fill="none" stroke="black" d="M3203,-84.81C3203,-107.29 3203,-142.8 3203,-142.8 3203,-142.8 3483.68,-142.8 3483.68,-142.8"/>
<polygon fill="black" stroke="black" points="3483.68,-146.3 3493.68,-142.8 3483.68,-139.3 3483.68,-146.3"/>
</g>
<!-- UsersAddComponent -->
<g id="node33" class="node">
<title>UsersAddComponent</title>
<polygon fill="#ffffb3" stroke="black" points="4768.82,-84.8 4631.18,-84.8 4631.18,-48.8 4768.82,-48.8 4768.82,-84.8"/>
<text text-anchor="middle" x="4700" y="-62.6" font-family="Times,serif" font-size="14.00">UsersAddComponent</text>
</g>
<!-- UserModule -->
<g id="node37" class="node">
<title>UserModule</title>
<polygon fill="#8dd3c7" stroke="black" points="4415.99,-149.8 4412.99,-153.8 4391.99,-153.8 4388.99,-149.8 4330.01,-149.8 4330.01,-113.8 4415.99,-113.8 4415.99,-149.8"/>
<text text-anchor="middle" x="4373" y="-127.6" font-family="Times,serif" font-size="14.00">UserModule</text>
</g>
<!-- UsersAddComponent&#45;&gt;UserModule -->
<g id="edge28" class="edge">
<title>UsersAddComponent&#45;&gt;UserModule</title>
<path fill="none" stroke="black" d="M4700,-85.08C4700,-106.12 4700,-137.8 4700,-137.8 4700,-137.8 4426.09,-137.8 4426.09,-137.8"/>
<polygon fill="black" stroke="black" points="4426.09,-134.3 4416.09,-137.8 4426.09,-141.3 4426.09,-134.3"/>
</g>
<!-- UsersDeleteComponent -->
<g id="node34" class="node">
<title>UsersDeleteComponent</title>
<polygon fill="#ffffb3" stroke="black" points="4612.75,-84.8 4463.25,-84.8 4463.25,-48.8 4612.75,-48.8 4612.75,-84.8"/>
<text text-anchor="middle" x="4538" y="-62.6" font-family="Times,serif" font-size="14.00">UsersDeleteComponent</text>
</g>
<!-- UsersDeleteComponent&#45;&gt;UserModule -->
<g id="edge29" class="edge">
<title>UsersDeleteComponent&#45;&gt;UserModule</title>
<path fill="none" stroke="black" d="M4538,-84.82C4538,-102.17 4538,-125.8 4538,-125.8 4538,-125.8 4426.35,-125.8 4426.35,-125.8"/>
<polygon fill="black" stroke="black" points="4426.35,-122.3 4416.35,-125.8 4426.35,-129.3 4426.35,-122.3"/>
</g>
<!-- UsersIndexComponent -->
<g id="node35" class="node">
<title>UsersIndexComponent</title>
<polygon fill="#ffffb3" stroke="black" points="4445.59,-84.8 4300.41,-84.8 4300.41,-48.8 4445.59,-48.8 4445.59,-84.8"/>
<text text-anchor="middle" x="4373" y="-62.6" font-family="Times,serif" font-size="14.00">UsersIndexComponent</text>
</g>
<!-- UsersIndexComponent&#45;&gt;UserModule -->
<g id="edge30" class="edge">
<title>UsersIndexComponent&#45;&gt;UserModule</title>
<path fill="none" stroke="black" d="M4373,-84.91C4373,-84.91 4373,-103.79 4373,-103.79"/>
<polygon fill="black" stroke="black" points="4369.5,-103.79 4373,-113.79 4376.5,-103.79 4369.5,-103.79"/>
</g>
<!-- UsersUpdateComponent -->
<g id="node36" class="node">
<title>UsersUpdateComponent</title>
<polygon fill="#ffffb3" stroke="black" points="4282.64,-84.8 4129.36,-84.8 4129.36,-48.8 4282.64,-48.8 4282.64,-84.8"/>
<text text-anchor="middle" x="4206" y="-62.6" font-family="Times,serif" font-size="14.00">UsersUpdateComponent</text>
</g>
<!-- UsersUpdateComponent&#45;&gt;UserModule -->
<g id="edge31" class="edge">
<title>UsersUpdateComponent&#45;&gt;UserModule</title>
<path fill="none" stroke="black" d="M4206,-84.81C4206,-100.85 4206,-121.8 4206,-121.8 4206,-121.8 4319.99,-121.8 4319.99,-121.8"/>
<polygon fill="black" stroke="black" points="4319.99,-125.3 4329.99,-121.8 4319.99,-118.3 4319.99,-125.3"/>
</g>
<!-- UserRoutingModule -->
<g id="node38" class="node">
<title>UserRoutingModule</title>
<polygon fill="#8dd3c7" stroke="black" points="4104.6,-84.8 4101.6,-88.8 4080.6,-88.8 4077.6,-84.8 3973.4,-84.8 3973.4,-48.8 4104.6,-48.8 4104.6,-84.8"/>
<text text-anchor="middle" x="4039" y="-62.6" font-family="Times,serif" font-size="14.00">UserRoutingModule</text>
</g>
<!-- UserRoutingModule&#45;&gt;UserModule -->
<g id="edge32" class="edge">
<title>UserRoutingModule&#45;&gt;UserModule</title>
<path fill="none" stroke="black" d="M4039,-85.07C4039,-103.36 4039,-128.8 4039,-128.8 4039,-128.8 4319.68,-128.8 4319.68,-128.8"/>
<polygon fill="black" stroke="black" points="4319.68,-132.3 4329.68,-128.8 4319.68,-125.3 4319.68,-132.3"/>
</g>
</g>
</svg>
